<svg x="0" y="0" width="706" height="353" viewBox="0 0 823.6666666666667 411.83333333333337" xmlns="http://www.w3.org/2000/svg" xmlns:xlink="http://www.w3.org/1999/xlink" xmlns:fi="http://pattern.flaticon.com/"><rect x="0px" y="0px" width="100%" height="100%" opacity="1" fill="#fff1e1"/><defs><g transform="matrix(0.12540973722934723 0.12540973722934723 -0.12540973722934723 0.12540973722934723 181.63201904296875 147.08248901367188)" id="L1_0"><circle cx="120" cy="143" r="86" fill="#e5efef"/><path d="m203.573 143.063c-.326 0-.656-.04-.986-.124-2.142-.543-3.437-2.719-2.894-4.86l14.478-57.076c.391-1.539 1.654-2.701 3.22-2.962l24-4c2.181-.365 4.24 1.108 4.604 3.288.363 2.179-1.109 4.239-3.288 4.603l-21.423 3.57-13.836 54.544c-.46 1.811-2.088 3.017-3.875 3.017z" fill="#4c241d"/><g><path d="m140.554 134.564 121.369-.578c-2.638 57.924-46.344 104-99.874 104-53.236 0-96.106-46.524-99.177-104l36.641.774" fill="#a9ba5a"/><path d="m162.049 242.014c-54.639 0-99.97-47.357-103.2-107.813-.06-1.119.349-2.212 1.129-3.018.779-.805 1.866-1.271 2.979-1.225l36.641.774c2.225.047 3.99 1.888 3.943 4.112s-1.901 4.011-4.113 3.942l-32.223-.681c4.86 54.091 45.791 95.851 94.844 95.851 49.896 0 91.158-41.8 95.581-95.923l-117.056.558c-.006 0-.013 0-.02 0-2.216 0-4.018-1.791-4.028-4.009-.011-2.226 1.784-4.037 4.009-4.048l121.369-.578h.019c1.097 0 2.146.447 2.906 1.238.764.796 1.168 1.871 1.118 2.974-2.754 60.475-48.392 107.846-103.898 107.846z" fill="#4c241d"/></g><g><path d="m135.26 133.986h126.662c-3.734 19.288-12.146 36.26-27.084 51.198-39.833 39.833-104.416 39.833-144.25 0-14.564-14.564-23.803-32.436-27.717-51.198h35.977" fill="#f53e28"/><path d="m162.714 219.009c-27.144 0-54.288-10.332-74.953-30.997-14.635-14.636-24.596-33.035-28.804-53.21-.246-1.179.052-2.405.812-3.34.76-.934 1.9-1.477 3.104-1.477h35.977c2.209 0 4 1.791 4 4s-1.791 4-4 4h-30.93c4.388 16.756 13.14 32.013 25.498 44.37 38.211 38.211 100.383 38.209 138.592 0 12.601-12.603 20.793-27.156 24.952-44.37h-121.702c-2.209 0-4-1.791-4-4s1.791-4 4-4h126.663c1.194 0 2.326.533 3.085 1.454.76.922 1.068 2.134.842 3.307-4.052 20.93-13.271 38.354-28.183 53.266-20.665 20.665-47.809 30.997-74.953 30.997z" fill="#4c241d"/></g><g fill="#4c241d"><path d="m210.052 169.987c-1.467 0-2.88-.811-3.581-2.212l-4-8c-.988-1.977-.187-4.379 1.789-5.367 1.975-.987 4.378-.187 5.367 1.789l4 8c.988 1.977.187 4.379-1.789 5.367-.574.287-1.185.423-1.786.423z"/><path d="m182.052 189.987c-1.467 0-2.88-.811-3.581-2.212l-4-8c-.988-1.977-.187-4.379 1.789-5.367 1.976-.987 4.379-.186 5.367 1.789l4 8c.988 1.977.187 4.379-1.789 5.367-.574.287-1.185.423-1.786.423z"/><path d="m102.052 161.987c-1.467 0-2.88-.811-3.581-2.212l-4-8c-.988-1.977-.187-4.379 1.789-5.367 1.975-.988 4.379-.187 5.367 1.789l4 8c.988 1.977.187 4.379-1.789 5.367-.574.287-1.185.423-1.786.423z"/><path d="m142.052 165.987c-1.467 0-2.88-.811-3.581-2.212l-4-8c-.988-1.977-.187-4.379 1.789-5.367 1.977-.988 4.379-.187 5.367 1.789l4 8c.988 1.977.187 4.379-1.789 5.367-.574.287-1.185.423-1.786.423z"/><path d="m175.172 156.863c-1.024 0-2.047-.391-2.829-1.172-1.562-1.562-1.562-4.095 0-5.656l5.754-5.754c1.562-1.562 4.095-1.562 5.657 0s1.562 4.095 0 5.656l-5.754 5.754c-.781.781-1.804 1.172-2.828 1.172z"/><path d="m231.172 156.863c-1.024 0-2.047-.391-2.829-1.172-1.562-1.562-1.562-4.095 0-5.656l5.754-5.754c1.562-1.562 4.095-1.562 5.657 0s1.562 4.095 0 5.656l-5.754 5.754c-.781.781-1.804 1.172-2.828 1.172z"/><path d="m111.172 184.863c-1.024 0-2.047-.391-2.829-1.172-1.562-1.562-1.562-4.095 0-5.656l5.754-5.754c1.562-1.562 4.095-1.562 5.657 0s1.562 4.095 0 5.656l-5.754 5.754c-.781.781-1.804 1.172-2.828 1.172z"/><path d="m147.172 200.863c-1.024 0-2.047-.391-2.829-1.172-1.562-1.562-1.562-4.095 0-5.656l5.754-5.754c1.562-1.562 4.095-1.562 5.657 0s1.562 4.095 0 5.656l-5.754 5.754c-.781.781-1.804 1.172-2.828 1.172z"/></g></g><g transform="matrix(0.3210758566856384 -0.09306546300649643 0.09306546300649643 0.3210758566856384 2.5875086784362793 76.55966186523438)" id="L1_1"><circle cx="176" cy="116" r="86" fill="#e5efef"/><g><path d="m59.934 226.301c-11.286-15.67-17.934-34.903-17.934-55.688 0-15.061 3.491-29.307 9.707-41.973 5.692-11.598 15.824-20.489 28.037-24.702 27.238-9.394 83.629-21.6 136.167 12.504 14.834 9.629 16.693 31.492 16.852 50.853.434 52.964-41.052 97.957-94.012 98.696-24.3.339-46.551-8.409-63.571-23.064" fill="#a9ba5a"/><path d="m137.409 270c-23.822 0-46.798-8.508-64.84-24.042-1.674-1.441-1.862-3.967-.421-5.641 1.44-1.675 3.966-1.864 5.642-.421 16.911 14.561 38.576 22.396 60.905 22.096 50.085-.699 90.489-43.165 90.067-94.664-.273-33.465-7.751-42.807-15.029-47.531-50.629-32.863-104.862-21.673-132.683-12.077-11.184 3.856-20.569 12.124-25.752 22.682-6.17 12.57-9.298 26.099-9.298 40.211 0 19.296 5.94 37.745 17.18 53.35 1.291 1.792.884 4.292-.908 5.583-1.792 1.292-4.291.885-5.584-.908-12.226-16.975-18.688-37.04-18.688-58.025 0-15.345 3.403-30.06 10.116-43.736 6.106-12.441 17.159-22.18 30.325-26.72 29.2-10.071 86.171-21.783 139.647 12.93 16.15 10.483 18.503 33.269 18.674 54.176.457 55.884-43.485 101.968-97.956 102.728-.465.006-.931.009-1.397.009z" fill="#4c241d"/></g><g><ellipse cx="135px" cy="126px" rx="60px" ry="18px" fill="#d9be6f"/><path d="m135.062 149.021c-32.048 0-64.49-7.767-64.49-22.612s32.442-22.612 64.49-22.612c32.047 0 64.489 7.767 64.489 22.612s-32.443 22.612-64.489 22.612zm0-37.224c-15.77 0-30.543 1.873-41.597 5.274-11.757 3.618-14.894 7.572-14.894 9.338s3.137 5.72 14.894 9.338c11.054 3.401 25.827 5.274 41.597 5.274s30.542-1.873 41.596-5.274c11.757-3.618 14.894-7.572 14.894-9.338s-3.137-5.72-14.894-9.338c-11.054-3.401-25.827-5.274-41.596-5.274z" fill="#4c241d"/></g><path d="m159.016 147.146c-.169 0-.34-.011-.512-.033-2.191-.28-3.741-2.284-3.461-4.475l9.275-72.574c.188-1.471 1.175-2.717 2.563-3.238l37.224-13.959c2.068-.78 4.374.273 5.149 2.341.776 2.068-.272 4.374-2.341 5.149l-34.966 13.113-8.97 70.182c-.256 2.02-1.978 3.494-3.961 3.494z" fill="#4c241d"/><path d="m121.479 145.497c-1.772 0-3.393-1.188-3.865-2.982l-28.299-107.496c-.562-2.137.714-4.324 2.85-4.887 2.139-.563 4.323.713 4.887 2.85l28.299 107.496c.562 2.137-.714 4.324-2.85 4.887-.342.09-.685.132-1.022.132z" fill="#4c241d"/><g><path d="m69.918 80.532 69.796-18.613-43.304-16.014z" fill="#fc8c29"/><path d="m69.918 84.532c-1.313 0-2.571-.649-3.325-1.778-.951-1.423-.892-3.293.148-4.653l26.491-34.627c1.065-1.395 2.914-1.932 4.564-1.321l43.305 16.015c1.635.604 2.689 2.198 2.608 3.938-.082 1.741-1.281 3.229-2.966 3.678l-69.795 18.612c-.342.092-.687.136-1.03.136zm27.874-33.851-17.568 22.962 46.285-12.343z" fill="#4c241d"/></g><g fill="#4c241d"><path d="m172.741 242.585c-1.485 0-2.911-.831-3.603-2.256-.964-1.988-.133-4.38 1.855-5.344 13.691-6.636 24.427-17.479 30.228-30.529.896-2.02 3.26-2.93 5.28-2.031 2.019.897 2.928 3.261 2.03 5.28-6.567 14.775-18.659 27.02-34.05 34.479-.56.272-1.155.401-1.74.401z"/><path d="m140 170.001c-45.569 0-94-11.916-94-34 0-2.209 1.791-4 4-4s4 1.791 4 4c0 5.976 8.832 12.487 23.625 17.418 16.602 5.534 38.754 8.582 62.375 8.582 7.068 0 14.102-.278 20.904-.826 2.216-.185 4.131 1.464 4.309 3.666.177 2.202-1.464 4.131-3.666 4.309-7.016.564-14.266.851-21.547.851z"/></g></g><g transform="matrix(0.1003984808921814 0.019431963562965393 -0.019431963562965393 0.1003984808921814 126.30245208740234 300.24835205078125)" id="L1_2"><path d="m207.5 430.402h-128c35.35 0 64-28.65 64-64 0 35.35 28.65 64 64 64z" fill="#e4e8ed"/><path d="m7.5 142.402v7.998l136 136.002 136-136v-8z" fill="#e4e8ed"/><circle cx="63" cy="126" r="24" fill="#aae79a"/><path d="m67.76 102.786c2.345 3.276 3.74 7.279 3.74 11.615 0 11.046-8.954 20-20 20-4.336 0-8.339-1.395-11.615-3.74 2.012 11.221 11.815 19.74 23.615 19.74 13.255 0 24-10.745 24-24 0-11.799-8.518-21.603-19.74-23.615z" fill="#52cd8d"/><path d="m114.304 215.916h158.392v16.971h-158.392z" transform="matrix(0.7070000171661377 -0.7070000171661377 0.7070000171661377 0.7070000171661377 -102.0009994506836 202.55099487304688)" fill="#c8d1da"/><path d="m255.5 174.402-112 112-112-112z" fill="#e46a4a"/><path d="m255.5 174.402-112 112-12-12 100-100z" fill="#d03582"/><path d="m135.5 238.902h16v15h-16z" fill="#ffffff"/><path d="m431.5 430.402h-128c35.35 0 64-28.65 64-64 0 35.35 28.65 64 64 64z" fill="#e4e8ed"/><path d="m231.5 142.402v7.998l136 136.002 136-136v-8z" fill="#e4e8ed"/><path d="m503.5 142.402v8l-136 136-12-12 132-132z" fill="#c8d1da"/><path d="m479.5 174.402-112 112-112-112z" fill="#e46a4a"/><path d="m479.5 174.402-112 112-12-12 100-100z" fill="#d03582"/><circle cx="287" cy="126" r="24" fill="#aae79a"/><path d="m291.76 102.786c2.345 3.276 3.74 7.279 3.74 11.615 0 11.046-8.954 20-20 20-4.336 0-8.339-1.395-11.615-3.74 2.012 11.221 11.815 19.74 23.615 19.74 13.255 0 24-10.745 24-24 0-11.799-8.518-21.603-19.74-23.615z" fill="#52cd8d"/><path d="m359.5 238.902h16v15h-16z" fill="#ffffff"/><path d="m151.5 222.902h16v15h-16z"/><path d="m244.803 195.705-10.606-10.606-90.697 90.696-93.893-93.894h58.786l29.803 29.803 10.606-10.606-19.197-19.197h85.895v-15h-100.894l-17-17h109.894v-15h-113.675c.76-2.706 1.175-5.555 1.175-8.5 0-17.369-14.131-31.5-31.5-31.5-5.972 0-11.561 1.671-16.325 4.569l-26.372-26.372-10.606 10.607 26.372 26.372c-2.898 4.764-4.569 10.353-4.569 16.325 0 2.945.415 5.794 1.175 8.5h-33.175v18.605l136 136.001v76.894c0 31.154-25.346 56.5-56.5 56.5h-24v15h176v-15h-24c-31.154 0-56.5-25.346-56.5-56.5v-76.894zm-181.303-85.803c9.098 0 16.5 7.402 16.5 16.5s-7.402 16.5-16.5 16.5-16.5-7.402-16.5-16.5c0-9.099 7.402-16.5 16.5-16.5zm-45.893 40h24.946c5.571 4.971 12.91 8 20.946 8 5.972 0 11.561-1.671 16.325-4.569l13.569 13.569h-58.786zm146.152 273h-40.519c8.471-6.574 15.429-15 20.259-24.674 4.831 9.673 11.789 18.1 20.26 24.674z"/><path d="m511 153.508v-18.606h-193.175c.76-2.706 1.175-5.555 1.175-8.5 0-17.369-14.131-31.5-31.5-31.5-5.972 0-11.561 1.671-16.325 4.569l-26.372-26.372-10.606 10.606 26.372 26.372c-2.898 4.764-4.569 10.353-4.569 16.325 0 2.945.415 5.794 1.175 8.5h-33.175v18.605l136 136.001v76.894c0 31.154-25.346 56.5-56.5 56.5h-24v15h176v-15h-24c-31.154 0-56.5-25.346-56.5-56.5v-76.894zm-223.5-43.606c9.098 0 16.5 7.402 16.5 16.5s-7.402 16.5-16.5 16.5-16.5-7.402-16.5-16.5c0-9.099 7.402-16.5 16.5-16.5zm-45.893 40h24.946c5.571 4.971 12.91 8 20.946 8 5.972 0 11.561-1.671 16.325-4.569l13.569 13.569h-58.786zm146.152 273h-40.519c8.471-6.574 15.429-15 20.259-24.674 4.832 9.673 11.789 18.1 20.26 24.674zm-20.259-147.107-93.893-93.894h58.786l29.803 29.803 10.606-10.606-19.197-19.197h53.895v-15h-68.893l-17-17h171.787l-17 17h-52.894v15h37.894z"/><path d="m375.5 222.902h16v15h-16z"/></g><g transform="matrix(1.4530891180038452 -0.47744354605674744 0.47744354605674744 1.4530891180038452 243.76092529296875 238.00308227539062)" id="L1_3"><path d="m31 14a11 11 0 0 1 22 0z" fill="#8ec13f"/><path d="m49 14h-14a7 7 0 0 1 14 0z" fill="#fcf05a"/><path d="m24 57h16a4 4 0 0 1 4 4 0 0 0 0 1 0 0h-24a0 0 0 0 1 0 0 4 4 0 0 1 4-4z" fill="#87cee9"/><path d="m30 40h4v17h-4z" fill="#32b1cc"/><path d="m27 36h10a0 0 0 0 1 0 0v2a2 2 0 0 1 -2 2h-6a2 2 0 0 1 -2-2v-2a0 0 0 0 1 0 0z" fill="#5f79ba"/><path d="m25 32h14a0 0 0 0 1 0 0v2a2 2 0 0 1 -2 2h-10a2 2 0 0 1 -2-2v-2a0 0 0 0 1 0 0z" fill="#486193"/><path d="m49 14v8a10 10 0 0 1 -10 10h-14a10 10 0 0 1 -10-10v-8z" fill="#32b1cc"/><path d="m45.75 8.09-3.75 5.91-3.75-5.91a7 7 0 0 1 7.5 0z" fill="#fff69a"/><path d="m49 19.02v2.98a10 10 0 0 1 -10 10h-14a10 10 0 0 1 -10-10v-2.98c7.99.22 8.35 2.98 17 2.98s9.01-2.76 17-2.98z" fill="#5f79ba"/><path d="m18.567 6.865h2v21.404h-2z" transform="matrix(0.7070000171661377 -0.7070000171661377 0.7070000171661377 0.7070000171661377 -6.690999984741211 18.98200035095215)" fill="#f98c96"/><g fill="#f4f4e6"><path d="m39 29v-2a5.006 5.006 0 0 0 5-5h2a7.008 7.008 0 0 1 -7 7z"/><path d="m35 27h2v2h-2z"/><path d="m18 22h2v2h-2z"/><path d="m21 26h2v2h-2z"/></g><circle cx="29" cy="27" r="3" fill="#fcf05a"/><circle cx="11" cy="9" r="2" fill="#d9176c"/></g></defs><g fi:class="KUsePattern" opacity="0.18"><pattern id="pattern_L1_0" width="350" height="350" patternUnits="userSpaceOnUse"><use xlink:href="#L1_0" x="-350" y="-350"/><use xlink:href="#L1_0" x="0" y="-350"/><use xlink:href="#L1_0" x="350" y="-350"/><use xlink:href="#L1_0" x="-350" y="0"/><use xlink:href="#L1_0" x="0" y="0"/><use xlink:href="#L1_0" x="350" y="0"/><use xlink:href="#L1_0" x="-350" y="350"/><use xlink:href="#L1_0" x="0" y="350"/><use xlink:href="#L1_0" x="350" y="350"/></pattern><rect x="0" y="0" width="100%" height="100%" fill="url(#pattern_L1_0)"/></g><g fi:class="KUsePattern" opacity="0.27"><pattern id="pattern_L1_1" width="350" height="350" patternUnits="userSpaceOnUse"><use xlink:href="#L1_1" x="-350" y="-350"/><use xlink:href="#L1_1" x="0" y="-350"/><use xlink:href="#L1_1" x="350" y="-350"/><use xlink:href="#L1_1" x="-350" y="0"/><use xlink:href="#L1_1" x="0" y="0"/><use xlink:href="#L1_1" x="350" y="0"/><use xlink:href="#L1_1" x="-350" y="350"/><use xlink:href="#L1_1" x="0" y="350"/><use xlink:href="#L1_1" x="350" y="350"/></pattern><rect x="0" y="0" width="100%" height="100%" fill="url(#pattern_L1_1)"/></g><g fi:class="KUsePattern" opacity="0.26"><pattern id="pattern_L1_2" width="350" height="350" patternUnits="userSpaceOnUse"><use xlink:href="#L1_2" x="-350" y="-350"/><use xlink:href="#L1_2" x="0" y="-350"/><use xlink:href="#L1_2" x="350" y="-350"/><use xlink:href="#L1_2" x="-350" y="0"/><use xlink:href="#L1_2" x="0" y="0"/><use xlink:href="#L1_2" x="350" y="0"/><use xlink:href="#L1_2" x="-350" y="350"/><use xlink:href="#L1_2" x="0" y="350"/><use xlink:href="#L1_2" x="350" y="350"/></pattern><rect x="0" y="0" width="100%" height="100%" fill="url(#pattern_L1_2)"/></g><g fi:class="KUsePattern" opacity="0.35"><pattern id="pattern_L1_3" width="350" height="350" patternUnits="userSpaceOnUse"><use xlink:href="#L1_3" x="-350" y="-350"/><use xlink:href="#L1_3" x="0" y="-350"/><use xlink:href="#L1_3" x="350" y="-350"/><use xlink:href="#L1_3" x="-350" y="0"/><use xlink:href="#L1_3" x="0" y="0"/><use xlink:href="#L1_3" x="350" y="0"/><use xlink:href="#L1_3" x="-350" y="350"/><use xlink:href="#L1_3" x="0" y="350"/><use xlink:href="#L1_3" x="350" y="350"/></pattern><rect x="0" y="0" width="100%" height="100%" fill="url(#pattern_L1_3)"/></g></svg>